<mxfile host="app.diagrams.net" modified="2022-11-28T06:17:01.973Z" agent="5.0 (Macintosh; Intel Mac OS X 10_14_6) AppleWebKit/537.36 (KHTML, like Gecko) Chrome/107.0.0.0 Safari/537.36" version="20.6.0" etag="MYVlJA7xo9F7OvnBj5Oc" type="github">
  <diagram id="ibspxNUeYR8Sr7Iqr9Nt" name="第 1 页">
    <mxGraphModel dx="1773" dy="1703" grid="1" gridSize="10" guides="1" tooltips="1" connect="1" arrows="1" fold="1" page="1" pageScale="1" pageWidth="827" pageHeight="1169" math="0" shadow="0">
      <root>
        <mxCell id="0" />
        <mxCell id="1" parent="0" />
        <mxCell id="4lWHuPYtFggUdT9GiCiC-4" value="" style="rounded=1;whiteSpace=wrap;html=1;strokeWidth=2;fillWeight=4;hachureGap=8;hachureAngle=45;fillColor=#f5f5f5;sketch=0;fontSize=15;fontColor=#333333;strokeColor=#666666;" vertex="1" parent="1">
          <mxGeometry x="-40" y="80" width="600" height="480" as="geometry" />
        </mxCell>
        <mxCell id="4lWHuPYtFggUdT9GiCiC-9" style="edgeStyle=orthogonalEdgeStyle;rounded=0;orthogonalLoop=1;jettySize=auto;html=1;fontSize=15;sketch=1;strokeWidth=2;" edge="1" parent="1" source="4lWHuPYtFggUdT9GiCiC-1" target="4lWHuPYtFggUdT9GiCiC-8">
          <mxGeometry relative="1" as="geometry" />
        </mxCell>
        <mxCell id="4lWHuPYtFggUdT9GiCiC-1" value="接受者/提议者" style="rounded=1;whiteSpace=wrap;html=1;strokeWidth=2;fillWeight=4;hachureGap=8;hachureAngle=45;fillColor=#f8cecc;sketch=0;strokeColor=#b85450;fontSize=15;fontStyle=1" vertex="1" parent="1">
          <mxGeometry x="200" y="120" width="120" height="80" as="geometry" />
        </mxCell>
        <mxCell id="4lWHuPYtFggUdT9GiCiC-2" value="接受者" style="rounded=1;whiteSpace=wrap;html=1;strokeWidth=2;fillWeight=4;hachureGap=8;hachureAngle=45;fillColor=#dae8fc;sketch=0;strokeColor=#6c8ebf;fontSize=15;fontStyle=1" vertex="1" parent="1">
          <mxGeometry x="400" y="280" width="120" height="80" as="geometry" />
        </mxCell>
        <mxCell id="4lWHuPYtFggUdT9GiCiC-3" value="接受者" style="rounded=1;whiteSpace=wrap;html=1;strokeWidth=2;fillWeight=4;hachureGap=8;hachureAngle=45;fillColor=#dae8fc;sketch=0;strokeColor=#6c8ebf;fontSize=15;fontStyle=1" vertex="1" parent="1">
          <mxGeometry y="280" width="120" height="80" as="geometry" />
        </mxCell>
        <mxCell id="4lWHuPYtFggUdT9GiCiC-6" style="edgeStyle=orthogonalEdgeStyle;rounded=0;orthogonalLoop=1;jettySize=auto;html=1;entryX=0.5;entryY=0;entryDx=0;entryDy=0;fontSize=15;strokeWidth=2;sketch=1;" edge="1" parent="1" source="4lWHuPYtFggUdT9GiCiC-5" target="4lWHuPYtFggUdT9GiCiC-1">
          <mxGeometry relative="1" as="geometry" />
        </mxCell>
        <mxCell id="4lWHuPYtFggUdT9GiCiC-5" value="client" style="rounded=1;whiteSpace=wrap;html=1;strokeWidth=2;fillWeight=4;hachureGap=8;hachureAngle=45;fillColor=#d5e8d4;sketch=0;strokeColor=#82b366;fontSize=15;fontStyle=1" vertex="1" parent="1">
          <mxGeometry x="200" y="-40" width="120" height="80" as="geometry" />
        </mxCell>
        <mxCell id="4lWHuPYtFggUdT9GiCiC-8" value="学习者" style="rounded=1;whiteSpace=wrap;html=1;strokeWidth=2;fillWeight=4;hachureGap=8;hachureAngle=45;fillColor=#ffe6cc;sketch=0;strokeColor=#d79b00;fontSize=15;fontStyle=1" vertex="1" parent="1">
          <mxGeometry x="200" y="440" width="120" height="80" as="geometry" />
        </mxCell>
        <mxCell id="4lWHuPYtFggUdT9GiCiC-12" value="" style="endArrow=classic;html=1;rounded=0;fontSize=15;exitX=0;exitY=1;exitDx=0;exitDy=0;entryX=1;entryY=0;entryDx=0;entryDy=0;strokeWidth=2;sketch=1;" edge="1" parent="1" source="4lWHuPYtFggUdT9GiCiC-1" target="4lWHuPYtFggUdT9GiCiC-3">
          <mxGeometry width="50" height="50" relative="1" as="geometry">
            <mxPoint x="200" y="310" as="sourcePoint" />
            <mxPoint x="250" y="260" as="targetPoint" />
          </mxGeometry>
        </mxCell>
        <mxCell id="4lWHuPYtFggUdT9GiCiC-13" value="" style="endArrow=classic;html=1;rounded=0;fontSize=15;exitX=1;exitY=1;exitDx=0;exitDy=0;entryX=0;entryY=0;entryDx=0;entryDy=0;sketch=1;strokeWidth=2;" edge="1" parent="1" source="4lWHuPYtFggUdT9GiCiC-1" target="4lWHuPYtFggUdT9GiCiC-2">
          <mxGeometry width="50" height="50" relative="1" as="geometry">
            <mxPoint x="180" y="360" as="sourcePoint" />
            <mxPoint x="230" y="310" as="targetPoint" />
          </mxGeometry>
        </mxCell>
        <mxCell id="4lWHuPYtFggUdT9GiCiC-14" value="" style="endArrow=classic;html=1;rounded=0;fontSize=15;exitX=1;exitY=1;exitDx=0;exitDy=0;entryX=0;entryY=0;entryDx=0;entryDy=0;strokeWidth=2;sketch=1;" edge="1" parent="1" source="4lWHuPYtFggUdT9GiCiC-3" target="4lWHuPYtFggUdT9GiCiC-8">
          <mxGeometry width="50" height="50" relative="1" as="geometry">
            <mxPoint x="20" y="500" as="sourcePoint" />
            <mxPoint x="70" y="450" as="targetPoint" />
          </mxGeometry>
        </mxCell>
        <mxCell id="4lWHuPYtFggUdT9GiCiC-15" value="" style="endArrow=classic;html=1;rounded=0;fontSize=15;exitX=0;exitY=1;exitDx=0;exitDy=0;entryX=1;entryY=0;entryDx=0;entryDy=0;strokeWidth=2;sketch=1;" edge="1" parent="1" source="4lWHuPYtFggUdT9GiCiC-2" target="4lWHuPYtFggUdT9GiCiC-8">
          <mxGeometry width="50" height="50" relative="1" as="geometry">
            <mxPoint x="130" y="370" as="sourcePoint" />
            <mxPoint x="210" y="450" as="targetPoint" />
          </mxGeometry>
        </mxCell>
      </root>
    </mxGraphModel>
  </diagram>
</mxfile>
